<?xml version="1.0" encoding="utf-8"?>
<!-- Generator: Adobe Illustrator 16.0.0, SVG Export Plug-In . SVG Version: 6.00 Build 0)  -->
<!DOCTYPE svg PUBLIC "-//W3C//DTD SVG 1.1//EN" "http://www.w3.org/Graphics/SVG/1.1/DTD/svg11.dtd">
<svg version="1.1" id="Layer_1" xmlns="http://www.w3.org/2000/svg" xmlns:xlink="http://www.w3.org/1999/xlink" x="0px" y="0px"
	 width="520px" height="520px" viewBox="0 0 520 520" enable-background="new 0 0 520 520" xml:space="preserve">
<g>
	<path fill-rule="evenodd" clip-rule="evenodd" fill="#341562" d="M508.624,324.596c-0.234,4.104-1.672,7.854-2.922,11.678
		c-5.497,10.496-14.657,17.076-24.503,22.921c-8.47,5.685-16.934,11.363-25.404,17.049c-25.409,17.048-50.818,34.096-76.217,51.173
		c-0.366,0.245-0.669,0.251-1.028,0.257c-5.342,4.589-11.477,8.036-17.281,11.963c-14.606,9.896-29.439,19.469-43.902,29.56
		c-8.328,5.81-16.461,11.786-26.078,15.341c-12.579,4.652-25.649,6.096-38.907,5.223c-18.048-1.182-33.589-8.703-48.257-19.029
		c-20.667-14.554-41.894-28.309-62.862-42.429c-6.415-4.314-12.769-8.721-19.148-13.082c-0.423-0.193-0.874-0.336-1.256-0.588
		c-8.601-5.765-17.248-11.454-25.775-17.327c-10.524-7.255-21.442-13.933-31.699-21.58c-9.68-6.056-19.006-12.643-28.543-18.921
		c-7.91-5.211-15.188-10.964-19.977-19.349c-2.722-5.097-3.658-10.569-3.453-16.288c0.234-6.667,3.037-12.386,6.507-17.871
		c0.143-0.199,0.279-0.394,0.422-0.593c2.261-2.357,4.521-4.721,6.787-7.077c1.13-0.766,2.26-1.524,3.39-2.283
		c0.742-0.549,1.49-1.091,2.231-1.639c1.159,0.188,2.056,0.845,2.997,1.507c7.699,5.389,15.37,10.815,23.383,15.729
		c17.34,11.695,34.685,23.39,52.03,35.079c2.425,1.632,4.88,3.241,7.316,4.856c7.848,5.245,15.793,10.354,23.532,15.753
		c20.204,14.086,41.02,27.253,61.315,41.196c6.946,4.777,13.75,9.755,21.455,13.321c9.126,4.229,18.686,6.41,28.68,7.42
		c13.441,1.37,26.42-0.416,39.13-4.623c9.31-3.082,17.175-8.807,25.205-14.188c14.485-9.709,28.965-19.423,43.439-29.148
		c25.712-17.276,51.419-34.559,77.143-51.83c0.554-0.37,1.17-0.633,1.455-1.295c0.965,0.028,1.473-0.845,2.261-1.164
		c1.307-0.937,2.585-1.912,3.921-2.803c13.069-8.738,26.134-17.477,39.228-26.175c1.951-1.301,3.59-3.133,6.027-3.63
		c1.271,1.222,2.99,1.93,3.967,3.481c0.667-0.119,1.141,0.274,1.638,0.61c2.095,2.096,4.189,4.185,6.284,6.273l0.924,1.25
		C506.318,309.779,509.075,316.662,508.624,324.596z"/>
	<path fill-rule="evenodd" clip-rule="evenodd" fill="#5925A3" d="M30.753,289.929c-0.291,0.114-0.576,0.239-0.861,0.365v-0.006
		C30.177,290.157,30.462,290.043,30.753,289.929z"/>
	<path fill-rule="evenodd" clip-rule="evenodd" fill="#FEFEFE" d="M146.745,173.708c4.599-2.278,8.567-5.506,12.764-8.396
		c5.975-4.114,12.035-8.102,18.06-12.144c7.528-4.12,14.232-9.472,21.327-14.241c13.511-9.08,28.428-13.922,44.735-13.675
		c12.831,0.195,24.807,3.657,35.146,11.566c5.739,4.39,9.606,10.105,10.726,17.424c1.027,7.047-1.548,12.873-6.436,18.176
		c2.332,0.027,3.916-1.17,5.657-1.825c24.139-9.069,46.885-7.654,67.624,8.936c1.107,0.886,2.138,1.867,3.204,2.803
		c5.414,6.167,8.938,13.038,8.033,21.56c-1.722,7.852-5.954,14.216-11.558,19.828c-4.649,4.656-9.896,8.523-15.323,12.191
		c-6.351,4.291-12.662,8.639-18.991,12.962c-10.485,6.982-20.974,13.961-31.455,20.949c-3.847,2.564-4.286,2.45-8.06-0.348
		c-9.638-7.146-19.781-13.556-29.779-20.176c-4.896-3.38-10.011-6.473-14.847-9.892c-8.606-6.086-17.52-11.706-26.134-17.771
		c-3.772-2.655-7.709-5.078-11.572-7.605c-9.23-6.468-18.666-12.629-28.053-18.866c-5.911-3.927-11.773-7.958-17.614-12.006
		c-2.583-1.79-5.245-3.467-7.865-5.206c-2.624-1.741-2.616-1.742-0.102-3.583C146.449,174.211,146.576,173.931,146.745,173.708z
		 M263.864,176.138c8.477-8.595,8.379-17.882-0.445-25.323c-6.363-5.366-13.791-8.259-22.146-8.547
		c-10.034-0.345-19.119,2.827-27.392,8.18c-11.633,7.526-23.041,15.399-34.581,23.071c-1.76,1.17-1.629,1.856,0.256,2.512
		c0.278,0.253,0.529,0.546,0.838,0.753c13.799,9.285,27.617,18.538,41.379,27.877c1.317,0.894,2.12,0.582,3.229-0.182
		c8.005-5.516,16.093-10.912,24.052-16.494C254.231,184.353,259.858,181.249,263.864,176.138z M336.812,214.816
		c7.309-7.861,7.263-16.838-0.307-23.848c-7.539-6.982-16.526-10.724-26.815-10.909c-9.214-0.166-17.848,2.409-25.94,6.647
		c-14.17,7.423-26.847,17.183-40.127,25.997c-1.041,0.66-2.053,1.372-3.128,1.967c-1.489,0.825-1.687,1.413-0.079,2.488
		c15.693,10.49,31.348,21.037,46.989,31.602c1.014,0.685,1.744,0.742,2.771,0.021c2.682-1.889,5.275-3.913,7.969-5.766
		c8.872-6.103,17.988-11.854,26.821-18.014C329.228,222.029,333.687,219.163,336.812,214.816z"/>
	<path fill-rule="evenodd" clip-rule="evenodd" fill="#53229C" d="M30.753,289.929c-0.291,0.114-0.576,0.239-0.861,0.365v-0.006
		C30.177,290.157,30.462,290.043,30.753,289.929z"/>
	<path fill-rule="evenodd" clip-rule="evenodd" fill="#713DBE" d="M336.812,214.818c-3.128,4.343-7.586,7.214-11.849,10.182
		c-8.829,6.159-17.944,11.912-26.819,18.013c-2.694,1.855-5.285,3.881-7.968,5.77c-1.027,0.719-1.759,0.662-2.773-0.023
		c-15.639-10.564-31.294-21.112-46.984-31.602c-1.61-1.073-1.416-1.661,0.074-2.489c1.078-0.593,2.089-1.307,3.127-1.963
		c13.282-8.818,25.958-18.578,40.13-25.997c8.093-4.241,16.729-6.815,25.94-6.649c10.29,0.183,19.274,3.927,26.813,10.907
		C344.071,197.975,344.123,206.953,336.812,214.818z"/>
	<path fill-rule="evenodd" clip-rule="evenodd" fill="#713DBE" d="M249.054,187.987c-7.963,5.582-16.05,10.975-24.052,16.495
		c-1.107,0.759-1.912,1.073-3.23,0.177c-13.761-9.337-27.579-18.589-41.379-27.875c-0.309-0.205-0.56-0.502-0.84-0.753
		c-1.884-0.657-2.015-1.341-0.251-2.512c11.535-7.671,22.944-15.547,34.582-23.069c8.27-5.354,17.356-8.527,27.391-8.179
		c8.355,0.286,15.78,3.179,22.145,8.544c8.824,7.442,8.921,16.729,0.445,25.324C259.857,181.252,254.229,184.351,249.054,187.987z"
		/>
	<path fill-rule="evenodd" clip-rule="evenodd" fill="#4A1D8B" d="M507.448,268.965c-0.377,0.855-0.754,1.706-1.125,2.563
		c-3.053,7.037-7.379,13.002-14.183,16.889c-0.491,1.507-2.819,1.403-2.871,3.293c-2.442,0.497-4.081,2.329-6.032,3.63
		c-13.094,8.698-26.158,17.437-39.228,26.175c-1.336,0.891-2.614,1.866-3.921,2.803c-0.788,0.319-1.296,1.192-2.261,1.164
		c-0.285,0.662-0.901,0.925-1.455,1.295c-25.724,17.271-51.431,34.554-77.143,51.83c-14.475,9.726-28.954,19.439-43.439,29.148
		c-8.03,5.382-15.896,11.106-25.205,14.188c-12.71,4.207-25.688,5.993-39.13,4.623c-9.994-1.01-19.554-3.19-28.68-7.42
		c-7.705-3.566-14.509-8.544-21.455-13.321c-20.296-13.943-41.111-27.11-61.315-41.196c-7.739-5.399-15.685-10.508-23.532-15.753
		c-2.437-1.615-4.892-3.225-7.316-4.856c-17.346-11.689-34.69-23.384-52.03-35.079c-8.013-4.914-15.684-10.341-23.383-15.729
		c-0.941-0.662-1.838-1.318-2.997-1.507c-0.285-0.474-0.57-0.936-0.855-1.409c0.285-0.126,0.57-0.251,0.861-0.365
		c-0.291,0.114-0.576,0.229-0.861,0.359v0.006c-0.65-0.359-1.347-0.656-1.94-1.09c-6.587-4.857-11.575-10.999-14.828-18.527
		c-0.771-2.916-1.553-5.815-1.741-8.875c-0.485-7.934,2.323-14.817,6.529-21.289c0.143-0.2,0.285-0.399,0.428-0.593
		c2.158-2.043,3.824-4.566,6.239-6.358c0.313-0.337,0.622-0.679,0.936-1.016c1.199-0.366,1.655-1.844,2.996-1.998
		c0.748-0.548,1.501-1.096,2.249-1.649c3.288,0.936,5.594,3.459,8.333,5.251c7.659,5.005,15.199,10.193,22.796,15.296
		c0.451,0.303,0.999,0.457,1.507,0.679c5.45,4.378,11.363,8.093,17.162,11.975c5.337,3.573,10.941,6.746,15.952,10.805
		c-0.034,1.021,0.714,1.397,1.404,1.945c6.661,5.314,13.618,10.229,20.513,15.229c15.165,10.998,30.284,22.059,45.42,33.104
		c15.131,11.044,30.387,21.934,45.364,33.183c18.366,13.789,39.01,18.949,61.531,16.318c13.396-1.559,25.964-6.051,37.025-14.149
		c22.978-16.825,45.974-33.628,68.986-50.414c13.526-9.874,27.139-19.634,40.614-29.576c2.437-1.792,5.434-3.11,6.734-6.187
		c4.96-4.07,10.656-7.049,15.872-10.742c5.269-3.727,10.668-7.271,16.027-10.873c0.719-0.479,1.398-0.959,1.792-1.752
		c6.347-3.55,12.294-7.711,18.327-11.751c4.309-2.882,8.321-6.25,13.145-8.327c1.626,0.816,2.904,2.026,3.955,3.493
		c0.662-0.091,1.146,0.28,1.649,0.616c0.302,0.337,0.604,0.674,0.907,1.01c2.209,1.33,3.447,3.647,5.377,5.263
		c0.308,0.411,0.616,0.828,0.924,1.238C507.996,249.228,510.279,258.617,507.448,268.965z"/>
	<path fill-rule="evenodd" clip-rule="evenodd" fill="#7844C4" d="M196.379,340.291v0.006h0.006
		C196.385,340.291,196.379,340.291,196.379,340.291z"/>
	<path fill-rule="evenodd" clip-rule="evenodd" fill="#713DBE" d="M502.831,179.363c-0.246-0.537-0.491-1.079-0.736-1.615
		c-8.02-10.193-19.491-15.907-29.891-23.007c-3.818-2.637-7.619-5.314-11.466-7.911c-11.546-7.785-23.104-15.559-34.679-23.298
		c-8.413-5.633-16.865-11.204-25.302-16.803c-5.524-3.778-11.038-7.573-16.58-11.329c-6.729-4.549-13.47-9.081-20.222-13.589
		c-8.652-5.776-17.328-11.518-25.991-17.277c-11.25-7.939-22.739-15.524-34.257-23.058c-2.871-1.878-5.901-3.539-9.109-4.68
		c-29.57-10.547-57.982-9.68-84.591,8.732c-9.292,6.427-18.68,12.705-28.029,19.052c-0.725,0.434-1.479,0.833-2.18,1.307
		c-17.237,11.558-34.468,23.115-51.682,34.69c-2.979,2.003-5.901,4.092-8.853,6.135c-0.816,0.479-1.654,0.914-2.437,1.438
		c-11.81,7.922-23.623,15.838-35.409,23.794c-9.509,6.416-18.983,12.888-28.469,19.337c-5.668,3.739-11.37,7.426-16.986,11.238
		c-3.893,2.648-8.059,4.937-11.381,8.367c-2.716,1.798-4.469,4.538-6.666,6.849c-4.31,6.575-7.095,13.596-6.512,21.654
		c0.148,2.101,0.564,4.132,1.016,6.17c1.369,3.15,2.22,6.558,4.555,9.229c2.922,5.296,7.477,9.012,12.18,12.579
		c0.588,0.445,1.072,1.016,1.604,1.53c3.288,0.936,5.594,3.459,8.333,5.251c7.659,5.005,15.199,10.193,22.796,15.296
		c0.451,0.303,0.999,0.457,1.507,0.679c5.45,4.378,11.363,8.093,17.162,11.975c5.337,3.573,10.941,6.746,15.952,10.805
		c-0.034,1.021,0.714,1.397,1.404,1.945c6.661,5.314,13.618,10.229,20.513,15.229c15.165,10.998,30.284,22.059,45.42,33.104
		c15.131,11.044,30.387,21.934,45.364,33.183c18.366,13.789,39.01,18.949,61.531,16.318c13.396-1.559,25.964-6.051,37.025-14.149
		c22.978-16.825,45.974-33.628,68.986-50.414c13.526-9.874,27.139-19.634,40.614-29.576c2.437-1.792,5.434-3.11,6.734-6.187
		c4.96-4.07,10.656-7.049,15.872-10.742c5.269-3.727,10.668-7.271,16.027-10.873c0.719-0.479,1.398-0.959,1.792-1.752
		c6.347-3.55,12.294-7.711,18.327-11.751c4.309-2.882,8.321-6.25,13.145-8.327c0.833-2.54,3.43-3.305,5.216-4.709
		c5.656-4.435,9.218-10.245,12.26-16.518c0.16-0.331,0.354-0.65,0.531-0.976c0.171-0.908,0.342-1.815,0.514-2.729
		C509.908,195.013,508.059,186.845,502.831,179.363z M146.232,174.369c0.217-0.16,0.343-0.439,0.514-0.662
		c4.595-2.277,8.567-5.508,12.763-8.396c5.976-4.115,12.037-8.099,18.059-12.146c7.528-4.115,14.234-9.469,21.328-14.24
		c13.51-9.081,28.429-13.921,44.735-13.675c12.83,0.194,24.805,3.659,35.147,11.569c5.735,4.389,9.605,10.103,10.724,17.425
		c1.027,7.043-1.546,12.87-6.438,18.173c2.335,0.028,3.922-1.17,5.662-1.821c24.137-9.069,46.882-7.654,67.623,8.932
		c1.106,0.884,2.14,1.866,3.201,2.802c5.417,6.17,8.938,13.042,8.036,21.563c-1.724,7.848-5.952,14.217-11.558,19.828
		c-4.651,4.657-9.896,8.521-15.324,12.191c-6.353,4.292-12.665,8.635-18.989,12.961c-10.49,6.98-20.975,13.961-31.459,20.946
		c-3.842,2.563-4.287,2.449-8.06-0.348c-9.634-7.146-19.781-13.556-29.775-20.176c-4.897-3.379-10.011-6.472-14.852-9.891
		c-8.606-6.084-17.516-11.707-26.129-17.768c-3.772-2.66-7.711-5.08-11.574-7.608c-9.229-6.466-18.664-12.63-28.053-18.863
		c-5.913-3.926-11.774-7.962-17.613-12.008c-2.585-1.792-5.245-3.464-7.864-5.206C143.71,176.212,143.716,176.212,146.232,174.369z
		 M149.577,308.357c0.034-0.017,0.074-0.039,0.114-0.063c-0.04,0.023-0.068,0.046-0.108,0.068
		C149.583,308.357,149.577,308.357,149.577,308.357z M194.667,339.145c0.815,0.028,1.398,0.388,1.712,1.146c0,0,0.006,0,0.006,0.006
		h-0.006C195.54,340.314,194.712,340.319,194.667,339.145z"/>
	<path fill-rule="evenodd" clip-rule="evenodd" fill="#3D1872" d="M196.385,340.297h-0.006v-0.006
		C196.379,340.291,196.385,340.291,196.385,340.297z"/>
	<path fill-rule="evenodd" clip-rule="evenodd" fill="#3D1872" d="M196.387,340.299c-0.839,0.014-1.674,0.019-1.718-1.153
		C195.482,339.172,196.071,339.532,196.387,340.299z"/>
</g>
</svg>
