<?xml version="1.0" encoding="utf-8"?>
<!-- Generator: Adobe Illustrator 16.0.0, SVG Export Plug-In . SVG Version: 6.00 Build 0)  -->
<!DOCTYPE svg PUBLIC "-//W3C//DTD SVG 1.1//EN" "http://www.w3.org/Graphics/SVG/1.1/DTD/svg11.dtd">
<svg version="1.1" id="Layer_1" xmlns="http://www.w3.org/2000/svg" xmlns:xlink="http://www.w3.org/1999/xlink" x="0px" y="0px"
	 width="520px" height="520px" viewBox="0 0 520 520" enable-background="new 0 0 520 520" xml:space="preserve">
<g>
	<polygon fill="#1B73BA" points="57.812,30 462.188,30 425.267,444.706 259.006,490 92.682,444.674 	"/>
	<polygon fill="#1C88C8" points="425.299,62.912 394.504,418.101 261.026,455.035 261.026,62.912 	"/>
	<polygon fill="#FFFFFF" points="383.12,166.46 260.6,217.62 378.39,217.62 364.01,375.74 261.37,404.91 154.68,375.77 
		148.29,295.67 199.74,295.67 201.9,336.73 261.37,351.87 316.66,336.56 323.05,268.85 146.37,268.92 141.61,217.69 264.53,166.36 
		188.09,166.3 137.45,166.45 132.69,115.09 387.31,115.09 	"/>
</g>
</svg>
