<svg height="512pt" viewBox="-2 0 511 512" width="512pt" xmlns="http://www.w3.org/2000/svg"><path d="m250.5 256h-226c0 124.816406 101.183594 226 226 226zm0 0" fill="#27d8f6"/><path d="m250.5 30c-124.816406 0-226 101.183594-226 226h226zm0 0" fill="#76e2f8"/><path d="m250.5 256h226c0-124.816406-101.183594-226-226-226zm0 0" fill="#0fa9dd"/><path d="m250.5 256v226c124.816406 0 226-101.183594 226-226zm0 0" fill="#0d91bd"/><path d="m250.5 222.378906-113.933594 33.621094c0 124.816406 51.007813 226 113.933594 226s113.933594-101.183594 113.933594-226zm0 0" fill="#00c0f1"/><path d="m250.5 30c-62.925781 0-113.933594 101.183594-113.933594 226h227.867188c0-124.816406-51.007813-226-113.933594-226zm0 0" fill="#26befc"/><path d="m364.433594 256-113.933594-33.621094v259.621094c62.925781 0 113.933594-101.183594 113.933594-226zm0 0" fill="#0fa9dd"/><path d="m136.566406 256h113.933594v-226c-62.925781 0-113.933594 101.183594-113.933594 226zm0 0" fill="#27d8f6"/><path d="m364.433594 256c0-124.816406-51.007813-226-113.933594-226v226zm0 0" fill="#00c0f1"/><path d="m114.5 256v136h272v-136l-136-46zm0 0" fill="#0042a2"/><path d="m114.5 120h272v136h-272zm0 0" fill="#0051bf"/><path d="m250.5 392h136v-136l-136-46zm0 0" fill="#002659"/><path d="m250.5 120h136v136h-136zm0 0" fill="#0042a2"/><path d="m296.5 302h30v30h-30zm0 0" fill="#a7d2d7"/><path d="m296.5 180h30v30h-30zm0 0" fill="#a7d2d7"/><path d="m235.5 180h30v30h-30zm0 0" fill="#ffdc55"/><path d="m235.5 302h30v30h-30zm0 0" fill="#ffdc55"/><path d="m461.5 211c-24.8125 0-45 20.1875-45 45s20.1875 45 45 45 45-20.1875 45-45-20.1875-45-45-45zm0 0" fill="#ffcd00"/><path d="m45.5 337c-24.8125 0-45 20.1875-45 45s20.1875 45 45 45 45-20.1875 45-45-20.1875-45-45-45zm0 0" fill="#ffdc55"/><path d="m346.5 422c-24.8125 0-45 20.1875-45 45s20.1875 45 45 45 45-20.1875 45-45-20.1875-45-45-45zm0 0" fill="#0042a2"/><path d="m250.5 0c-24.8125 0-45 20.1875-45 45s20.1875 45 45 45 45-20.1875 45-45-20.1875-45-45-45zm0 0" fill="#ffdc55"/><path d="m250.5 0v90c24.8125 0 45-20.1875 45-45s-20.1875-45-45-45zm0 0" fill="#ffcd00"/><path d="m48 85.582031c-24.8125 0-45 20.1875-45 45s20.1875 45 45 45 45-20.1875 45-45-20.1875-45-45-45zm0 0" fill="#0051bf"/><g fill="#ffcd00"><path d="m250.5 180h15v30h-15zm0 0"/><path d="m250.5 302h15v30h-15zm0 0"/></g></svg>