<?xml version="1.0" encoding="utf-8"?>
<!-- Generator: Adobe Illustrator 16.0.0, SVG Export Plug-In . SVG Version: 6.00 Build 0)  -->
<!DOCTYPE svg PUBLIC "-//W3C//DTD SVG 1.1//EN" "http://www.w3.org/Graphics/SVG/1.1/DTD/svg11.dtd">
<svg version="1.1" id="Layer_1" xmlns="http://www.w3.org/2000/svg" xmlns:xlink="http://www.w3.org/1999/xlink" x="0px" y="0px"
	 width="520px" height="520px" viewBox="0 0 520 520" enable-background="new 0 0 520 520" xml:space="preserve">
<g>
	<g>
		<path fill="#FFFFFF" d="M56.77,30"/>
		<line fill="none" x1="63.378" y1="32.534" x2="65.142" y2="36.961"/>
		<line fill="none" x1="62.479" y1="39.912" x2="61.389" y2="41.58"/>
		<polygon fill="#E34F26" points="58.854,30 463.23,30 426.309,444.706 260.048,490 93.724,444.674 		"/>
		<polygon fill="#EF652A" points="426.341,62.912 395.546,418.101 262.069,455.035 262.069,62.912 		"/>
		<polygon fill="#FFFFFF" points="387.42,114.259 383.229,165.626 188.193,165.466 192.3,216.791 379.09,216.791 364.709,374.904 
			262.069,404.073 155.378,374.936 148.994,294.837 200.447,294.837 202.607,335.896 262.069,351.04 317.361,335.727 
			323.755,268.02 147.069,268.084 132.795,114.259 		"/>
	</g>
</g>
</svg>
