<?xml version="1.0" encoding="utf-8"?>
<!-- Generator: Adobe Illustrator 16.0.0, SVG Export Plug-In . SVG Version: 6.00 Build 0)  -->
<!DOCTYPE svg PUBLIC "-//W3C//DTD SVG 1.1//EN" "http://www.w3.org/Graphics/SVG/1.1/DTD/svg11.dtd">
<svg version="1.1" id="Layer_1" xmlns="http://www.w3.org/2000/svg" xmlns:xlink="http://www.w3.org/1999/xlink" x="0px" y="0px"
	 width="520px" height="520px" viewBox="0 0 520 520" enable-background="new 0 0 520 520" xml:space="preserve">
<g>
	<path fill-rule="evenodd" clip-rule="evenodd" fill="#F0DB4F" d="M489.958,260.225c0,75.904-0.007,151.809,0.042,227.713
		c0.001,1.684-0.379,2.063-2.063,2.063c-151.957-0.045-303.916-0.045-455.874,0c-1.684,0-2.063-0.379-2.063-2.063
		c0.045-151.959,0.045-303.917,0-455.875C29.999,30.379,30.379,30,32.063,30c151.958,0.045,303.917,0.045,455.874,0
		c1.685,0,2.064,0.379,2.063,2.063C489.951,108.117,489.958,184.17,489.958,260.225z M384.779,454.166
		c3.763,0.069,9.869-0.432,15.927-1.491c12.254-2.145,23.669-6.341,33.421-14.271c12.977-10.552,19.23-24.455,19.949-41.008
		c0.824-19.012-4.572-35.561-19.187-48.468c-6.94-6.13-14.795-10.86-22.933-15.19c-10.171-5.412-21.01-9.305-31.48-14.029
		c-5.112-2.307-10.047-4.91-14.448-8.48c-9.683-7.854-9.826-26.69,4.81-32.027c8.8-3.209,17.39-2.181,25.29,2.991
		c4.613,3.021,7.728,7.438,10.467,12.12c0.578,0.988,0.966,1.426,2.157,0.641c10.361-6.822,20.761-13.588,31.172-20.334
		c0.87-0.563,1.044-0.99,0.5-1.924c-8.362-14.343-19.676-25.109-35.994-29.848c-12.572-3.651-25.347-4.166-38.214-2.158
		c-27.327,4.263-48.038,23.576-49.828,51.799c-0.985,15.548,2.196,30.068,12.159,42.529c7.735,9.676,17.915,16.143,28.849,21.59
		c9.432,4.699,19.446,8.041,28.963,12.539c5.946,2.811,11.972,5.486,17.01,9.843c10.928,9.449,9.174,26.06-3.851,32.335
		c-14.053,6.77-28.198,5.545-41.699-1.92c-7.848-4.339-13.275-11.273-18.012-18.733c-0.652-1.027-1.046-1.487-2.358-0.683
		c-10.635,6.518-21.317,12.959-32.024,19.359c-1.299,0.777-1.517,1.369-0.773,2.742c6.251,11.559,14.833,20.959,25.891,28.047
		C346.337,450.262,363.858,454.094,384.779,454.166z M280.349,320.471c0.032,0,0.065,0,0.098,0c0-25.45-0.023-50.899,0.047-76.349
		c0.005-1.972-0.476-2.491-2.47-2.476c-12.574,0.099-25.149,0.051-37.725,0.051c-2.898,0-2.899,0-2.899,2.845
		c0,47.306,0.003,94.612-0.006,141.918c0,3.743-0.104,7.485-0.785,11.18c-1.247,6.761-3.91,12.644-10.63,15.608
		c-8.014,3.535-21.1,3.766-29.608-4.953c-4.168-4.271-7.45-9.156-10.659-14.117c-0.659-1.02-1.101-1.241-2.21-0.511
		c-10.361,6.825-20.757,13.601-31.174,20.342c-0.901,0.583-0.997,1.012-0.522,1.935c8.204,15.935,20.269,27.599,37.321,33.714
		c15.375,5.513,31.091,5.851,46.865,2.347c14.82-3.291,26.934-10.872,34.991-24.111c6.643-10.914,9.237-22.977,9.32-35.566
		C280.461,368.375,280.349,344.422,280.349,320.471z"/>
	<path fill-rule="evenodd" clip-rule="evenodd" fill="#323330" d="M384.779,454.166c-20.921-0.072-38.442-3.904-54.238-14.029
		c-11.058-7.088-19.64-16.488-25.891-28.047c-0.743-1.373-0.525-1.965,0.773-2.742c10.707-6.4,21.39-12.842,32.024-19.359
		c1.313-0.805,1.706-0.345,2.358,0.683c4.736,7.46,10.164,14.395,18.012,18.733c13.501,7.465,27.646,8.689,41.699,1.92
		c13.024-6.275,14.778-22.886,3.851-32.335c-5.038-4.356-11.063-7.032-17.01-9.843c-9.517-4.498-19.531-7.84-28.963-12.539
		c-10.934-5.447-21.113-11.914-28.849-21.59c-9.963-12.461-13.145-26.981-12.159-42.529c1.79-28.224,22.501-47.536,49.828-51.799
		c12.867-2.007,25.642-1.493,38.214,2.158c16.318,4.739,27.632,15.505,35.994,29.848c0.544,0.934,0.37,1.36-0.5,1.924
		c-10.411,6.746-20.811,13.512-31.172,20.334c-1.191,0.785-1.579,0.348-2.157-0.641c-2.739-4.682-5.854-9.1-10.467-12.12
		c-7.9-5.172-16.49-6.2-25.29-2.991c-14.636,5.337-14.492,24.174-4.81,32.027c4.401,3.57,9.336,6.174,14.448,8.48
		c10.471,4.725,21.31,8.617,31.48,14.029c8.138,4.33,15.992,9.061,22.933,15.19c14.614,12.907,20.011,29.456,19.187,48.468
		c-0.719,16.553-6.973,30.456-19.949,41.008c-9.752,7.93-21.167,12.126-33.421,14.271
		C394.648,453.734,388.542,454.235,384.779,454.166z"/>
	<path fill-rule="evenodd" clip-rule="evenodd" fill="#323330" d="M280.349,320.471c0,23.951,0.112,47.904-0.046,71.855
		c-0.083,12.59-2.678,24.652-9.32,35.566c-8.058,13.239-20.171,20.82-34.991,24.111c-15.774,3.504-31.49,3.166-46.865-2.347
		c-17.053-6.115-29.117-17.779-37.321-33.714c-0.475-0.923-0.379-1.352,0.522-1.935c10.417-6.741,20.813-13.517,31.174-20.342
		c1.109-0.73,1.551-0.509,2.21,0.511c3.209,4.961,6.491,9.847,10.659,14.117c8.509,8.719,21.595,8.488,29.608,4.953
		c6.72-2.965,9.383-8.848,10.63-15.608c0.682-3.694,0.785-7.437,0.785-11.18c0.009-47.306,0.006-94.612,0.006-141.918
		c0-2.845,0.001-2.845,2.899-2.845c12.575,0,25.15,0.048,37.725-0.051c1.994-0.015,2.475,0.503,2.47,2.476
		c-0.07,25.45-0.047,50.899-0.047,76.349C280.414,320.471,280.381,320.471,280.349,320.471z"/>
</g>
</svg>
