<?xml version="1.0" encoding="utf-8"?>
<!-- Generator: Adobe Illustrator 16.0.0, SVG Export Plug-In . SVG Version: 6.00 Build 0)  -->
<!DOCTYPE svg PUBLIC "-//W3C//DTD SVG 1.1//EN" "http://www.w3.org/Graphics/SVG/1.1/DTD/svg11.dtd">
<svg version="1.1" id="Layer_1" xmlns="http://www.w3.org/2000/svg" xmlns:xlink="http://www.w3.org/1999/xlink" x="0px" y="0px"
	 width="520px" height="520px" viewBox="0 0 520 520" enable-background="new 0 0 520 520" xml:space="preserve">
<g>
	<g>
		<polygon fill-rule="evenodd" clip-rule="evenodd" fill="#172D45" points="471.147,375 260,490 48.853,375 48.853,145.001 260,30 
			471.147,145.001 		"/>
		<polygon fill-rule="evenodd" clip-rule="evenodd" fill="#183555" points="471.147,375 260,490 260,30 471.147,145.001 		"/>
	</g>
	<g>
		<g>
			<path fill-rule="evenodd" clip-rule="evenodd" fill="#FFFFFF" d="M166.366,178.579c0.182-1.646,0.336-3.294,0.55-4.935
				c1.557-11.934,5.734-22.817,13.359-32.316c3.239-4.034,6.479-8.066,9.719-12.099c0.096-0.118,0.208-0.224,0.489-0.261
				c-0.098,0.257-0.18,0.523-0.298,0.772c-3.055,6.362-5.109,13.035-6.123,19.987c-0.825,5.664-1.014,11.394-0.554,17.088
				c1.603,19.759,9.253,37.128,22.093,52.25c14.896,17.547,33.549,29.497,56.051,35.415c10.058,2.645,20.341,3.155,30.693,2.788
				c12.229-0.436,23.851-3.228,34.767-8.712c7.988-4.014,14.786-9.521,20.642-16.184c0.333-0.38,0.678-0.75,1.019-1.122
				c0.041-0.043,0.106-0.067,0.42-0.261c-0.928,1.875-1.649,3.573-2.571,5.161c-9.588,16.512-22.729,29.24-40.686,36.758
				c-8.668,3.628-17.705,5.885-27.112,6.582c-7.125,0.528-14.252,0.526-21.376-0.057c-11.505-0.938-22.318-4.214-32.574-9.368
				c-22.111-11.112-38.875-27.432-49.583-49.583c-5.128-10.608-8.081-21.803-8.771-33.556c-0.019-0.338-0.101-0.672-0.154-1.008
				C166.366,183.472,166.366,181.026,166.366,178.579z"/>
			<path fill-rule="evenodd" clip-rule="evenodd" fill="#FFFFFF" d="M353.634,185.166c-1.797,4.23-3.929,8.279-6.641,12.019
				c-9.249,12.755-21.665,20.733-37.28,23.734c-10.803,2.075-21.668,2.204-32.432-0.2c-9.392-2.099-17.862-6.318-25.654-11.858
				c-11.871-8.44-20.837-19.173-26.315-32.609c-3.617-8.873-5.04-18.104-4.256-27.637c0.697-8.497,3.306-16.382,8.139-23.489
				c2.886-4.242,5.871-8.417,8.999-12.522c-0.043,0.157-0.064,0.325-0.132,0.47c-6.487,13.635-7.27,27.638-2.601,41.918
				c5.097,15.587,14.8,27.874,28.206,37.386c9.353,6.637,19.71,11.06,31.086,13.004c13.496,2.308,26.66,1.389,39.139-4.616
				c7.272-3.5,13.534-8.321,18.533-14.652c0.369-0.468,0.805-0.884,1.21-1.323C353.634,184.915,353.634,185.04,353.634,185.166z"/>
			<path fill-rule="evenodd" clip-rule="evenodd" fill="#FFFFFF" d="M277.495,103.566c-0.672,2.047-1.485,4.061-1.99,6.146
				c-2.179,9.002-0.763,17.622,3.555,25.697c7.503,14.038,19.232,22.658,35.101,25.677c6.059,1.152,12.135,1.391,18.195-0.011
				c5.541-1.281,10.299-3.905,14.151-8.064c0.354-0.381,0.715-0.758,1.069-1.136c0.065,0.044,0.131,0.088,0.194,0.132
				c-0.609,1.008-1.192,2.033-1.831,3.022c-4.479,6.936-10.445,12.079-18.415,14.815c-3.332,1.144-6.743,1.797-10.273,1.871
				c-5.419,0.112-10.854,0.303-16.086-1.411c-15.479-5.068-26.661-14.748-32.005-30.13c-4.087-11.759-2.054-22.811,5.402-32.863
				c0.951-1.286,1.906-2.57,2.856-3.855C277.443,103.493,277.469,103.528,277.495,103.566z"/>
		</g>
		<g>
			<path fill-rule="evenodd" clip-rule="evenodd" fill="#FFFFFF" d="M189.954,295.197c0.913,0.248,1.862,0.226,2.79,0.365
				c5.383,0.813,10.212,2.781,14.046,6.779c3.121,3.253,4.891,7.187,5.707,11.59c0.888,4.792,0.104,9.427-1.205,14.031
				c-1.599,5.617-3.593,11.091-5.737,16.517c-0.083,0.211-0.175,0.42-0.241,0.635c-0.197,0.644,0.048,0.996,0.73,1.01
				c1.65,0.033,3.3,0.048,4.95,0.071c0.887,0.013,1.206,0.391,0.981,1.26c-0.866,3.351-1.746,6.697-2.638,10.04
				c-0.233,0.874-0.75,1.227-1.686,1.229c-4.995,0.013-9.99-0.014-14.983,0.045c-6.252,0.074-12.507,0.123-18.758,0.045
				c-3.986-0.05-7.876-0.746-11.497-2.538c-5.062-2.506-8.107-6.617-9.484-12.024c-0.953-3.741-1.046-7.536-0.646-11.36
				c0.587-5.633,1.979-11.064,4.117-16.3c1.992-4.88,4.695-9.314,8.515-13.001c4.341-4.192,9.529-6.72,15.451-7.785
				c1.42-0.255,2.847-0.456,4.291-0.508c0.123-0.004,0.25,0.004,0.344-0.101C186.651,295.197,188.304,295.197,189.954,295.197z
				 M183.244,345.722c0,0.009,0,0.021,0,0.029c2.188,0,4.375,0,6.563,0c1.241-0.002,1.637-0.309,1.976-1.51
				c1.641-5.829,3.283-11.656,4.923-17.485c0.922-3.277,1.526-6.589,0.929-10.006c-0.677-3.864-2.78-6.54-6.582-7.754
				c-2.485-0.793-5.038-0.828-7.593-0.515c-4.763,0.586-8.398,2.979-10.964,7.018c-1.937,3.05-3.079,6.418-3.9,9.904
				c-0.931,3.943-1.67,7.911-1.053,11.991c0.304,2.009,0.949,3.885,2.335,5.431c1.749,1.946,4.03,2.767,6.558,2.875
				C178.701,345.799,180.974,345.722,183.244,345.722z"/>
			<path fill-rule="evenodd" clip-rule="evenodd" fill="#FFFFFF" d="M111.442,377.919c0.452-1.834,0.91-3.668,1.354-5.503
				c0.387-1.603,0.756-3.206,1.137-4.811c0.26-1.095,0.828-1.457,1.972-1.396c1.173,0.063,2.355,0.116,3.525,0.044
				c1.447-0.091,2.442-1.02,3.292-2.095c1.756-2.223,2.642-4.81,3.214-7.548c1.613-7.719,3.233-15.437,4.998-23.124
				c0.618-2.688,1.215-5.383,1.818-8.074c0.212-0.947,0.711-1.355,1.703-1.357c3.818-0.002,7.635-0.002,11.453,0
				c0.983,0.002,1.299,0.399,1.091,1.357c-2.526,11.692-5.031,23.39-7.596,35.074c-0.819,3.73-1.952,7.372-3.819,10.738
				c-1.365,2.46-3.125,4.554-5.625,5.943c-2.141,1.19-4.473,1.678-6.888,1.719c-3.527,0.063-7.056,0.016-10.583-0.066
				c-0.583-0.014-0.845-0.32-1.046-0.777C111.442,378.001,111.442,377.961,111.442,377.919z"/>
			<path fill-rule="evenodd" clip-rule="evenodd" fill="#FFFFFF" d="M296.851,338.428c-4.91,0-9.822,0-14.733,0
				c-0.967,0-1.548,0.485-1.652,1.453c-0.213,1.972,0.064,3.805,1.729,5.137c1.011,0.81,2.241,1.106,3.487,1.325
				c1.429,0.249,2.872,0.27,4.315,0.27c6.46-0.003,12.918-0.003,19.378-0.005c0.782,0,1.152,0.463,0.993,1.232
				c-0.682,3.3-1.361,6.597-2.038,9.896c-0.193,0.934-0.684,1.362-1.616,1.371c-6.932,0.065-13.865,0.169-20.797,0.093
				c-3.955-0.041-7.86-0.483-11.542-2.079c-4.479-1.94-7.034-5.355-7.769-10.166c-0.518-3.39-0.19-6.748,0.388-10.087
				c0.744-4.309,1.734-8.56,3.332-12.645c1.336-3.411,3.121-6.546,5.712-9.18c3.146-3.199,6.976-5.157,11.312-6.136
				c5.83-1.314,11.688-1.439,17.527-0.074c3.104,0.727,5.833,2.162,7.817,4.764c1.571,2.063,2.311,4.439,2.584,6.984
				c0.475,4.427-0.221,8.752-1.159,13.055c-0.258,1.188-0.561,2.364-0.855,3.543c-0.245,0.976-0.605,1.248-1.616,1.248
				C306.715,338.43,301.783,338.428,296.851,338.428z M291.84,328.022c2.413,0,4.829-0.062,7.239,0.018
				c2.292,0.075,2.354-0.716,2.355-2.358c0-2.985-1.491-4.841-4.416-5.472c-1.957-0.423-3.92-0.439-5.895-0.131
				c-3.979,0.623-6.678,2.825-8.119,6.574c-0.386,1.005-0.118,1.366,0.975,1.367C286.6,328.022,289.22,328.022,291.84,328.022z"/>
			<path fill-rule="evenodd" clip-rule="evenodd" fill="#FFFFFF" d="M243.019,358.602c-3.715,0-7.43,0.014-11.144-0.005
				c-2.258-0.011-4.482-0.287-6.621-1.061c-4.2-1.515-6.575-4.597-7.531-8.859c-0.707-3.158-0.627-6.348-0.206-9.533
				c0.725-5.457,2.117-10.785,3.199-16.174c0.856-4.26,1.786-8.503,2.675-12.757c0.258-1.235,0.68-1.604,1.936-1.606
				c3.405-0.003,6.81-0.004,10.214,0.002c1.181,0.002,1.469,0.355,1.234,1.518c-1.262,6.214-2.545,12.424-3.787,18.644
				c-0.662,3.31-1.281,6.63-1.87,9.954c-0.212,1.194-0.295,2.416-0.085,3.632c0.413,2.385,1.73,3.644,4.131,3.998
				c0.698,0.104,1.395,0.132,2.096,0.134c2.435,0.003,4.869,0.003,7.305,0c1.013-0.002,1.479-0.363,1.692-1.35
				c1.133-5.231,2.257-10.465,3.386-15.697c1.407-6.52,2.813-13.041,4.226-19.561c0.182-0.845,0.659-1.218,1.535-1.218
				c3.508-0.005,7.016-0.005,10.524,0c0.879,0,1.203,0.396,1.02,1.256c-1.369,6.444-2.749,12.887-4.12,19.331
				c-1.966,9.244-3.927,18.487-5.886,27.733c-0.275,1.29-0.656,1.619-1.975,1.619C250.983,358.602,247.001,358.602,243.019,358.602z
				"/>
			<path fill-rule="evenodd" clip-rule="evenodd" fill="#FFFFFF" d="M361.136,324.152c2.084-0.001,4.169-0.004,6.252,0.001
				c0.923,0.002,1.407,0.398,1.611,1.296c0.459,2.008,0.917,4.016,1.371,6.024c0.063,0.28,0.068,0.632,0.397,0.705
				c0.34,0.079,0.48-0.253,0.64-0.485c2.92-4.273,5.84-8.549,8.758-12.824c3.71-5.435,7.424-10.864,11.124-16.305
				c0.563-0.827,1.3-1.189,2.294-1.188c4.684,0.013,9.368-0.003,14.053,0c0.311,0,0.709-0.138,0.878,0.26
				c0.153,0.357-0.125,0.618-0.321,0.88c-9.293,12.34-18.588,24.679-27.883,37.018c-1.465,1.943-2.901,3.909-4.41,5.819
				c-1.069,1.354-1.372,2.974-1.788,4.563c-0.643,2.448-1.257,4.907-1.884,7.358c-0.242,0.953-0.735,1.337-1.725,1.337
				c-4.085,0.004-8.171,0.004-12.257,0c-1.013,0-1.301-0.368-1.051-1.351c0.782-3.051,1.563-6.104,2.355-9.152
				c0.263-1.005,0.244-1.982-0.045-2.982c-1.865-6.492-3.716-12.988-5.57-19.483c-0.028-0.099-0.048-0.201-0.073-0.3
				c-0.21-0.815,0.061-1.187,0.896-1.188C356.884,324.146,359.01,324.152,361.136,324.152z"/>
			<path fill-rule="evenodd" clip-rule="evenodd" fill="#FFFFFF" d="M342.986,308.811c4.808,0,9.615-0.024,14.424,0.01
				c2.165,0.016,4.27,0.391,6.143,1.587c1.599,1.021,2.519,2.521,2.982,4.322c0.424,1.654,0.823,3.313,1.214,4.977
				c0.184,0.78,0.065,1.393-1.116,1.389c-9.223-0.022-18.446-0.009-27.67-0.009c-1.322,0-1.713,0.318-1.989,1.61
				c-2.397,11.193-4.755,22.394-6.977,33.625c-0.075,0.382-0.158,0.765-0.246,1.146c-0.163,0.702-0.687,1.117-1.428,1.119
				c-3.714,0.007-7.429,0.014-11.142,0.012c-0.707,0-1.047-0.46-0.891-1.219c0.249-1.207,0.524-2.407,0.782-3.612
				c1.469-6.887,2.931-13.776,4.402-20.662c1.283-6.006,2.578-12.01,3.867-18.014c0.358-1.672,0.711-3.344,1.071-5.013
				c0.203-0.941,0.633-1.291,1.593-1.292c4.993-0.004,9.987-0.002,14.979-0.002C342.986,308.792,342.986,308.802,342.986,308.811z"
				/>
			<path fill-rule="evenodd" clip-rule="evenodd" fill="#FFFFFF" d="M141.006,320.673c-1.856,0-3.713,0.002-5.569-0.001
				c-1.198-0.003-1.481-0.345-1.222-1.507c0.697-3.113,1.4-6.225,2.107-9.336c0.208-0.916,0.714-1.342,1.653-1.344
				c3.815-0.009,7.631-0.009,11.447,0.001c0.935,0.003,1.244,0.414,1.042,1.351c-0.676,3.138-1.356,6.275-2.046,9.411
				c-0.231,1.048-0.701,1.419-1.779,1.422C144.761,320.678,142.883,320.673,141.006,320.673z"/>
		</g>
	</g>
</g>
</svg>
