<?xml version="1.0" encoding="utf-8"?>
<!-- Generator: Adobe Illustrator 16.0.0, SVG Export Plug-In . SVG Version: 6.00 Build 0)  -->
<!DOCTYPE svg PUBLIC "-//W3C//DTD SVG 1.1//EN" "http://www.w3.org/Graphics/SVG/1.1/DTD/svg11.dtd">
<svg version="1.1" id="Layer_1" xmlns="http://www.w3.org/2000/svg" xmlns:xlink="http://www.w3.org/1999/xlink" x="0px" y="0px"
	 width="520px" height="520px" viewBox="0 0 520 520" enable-background="new 0 0 520 520" xml:space="preserve">
<g>
	<polygon fill="#95C9FE" points="485.565,490 137.565,490 137.565,30 391.19,30 485.487,125.609 	"/>
	<polygon fill="#2B236E" points="485.601,490 137.601,490 137.601,30 391.226,30 391.241,125.609 485.521,125.609 	"/>
	<g enable-background="new    ">
		<path fill="#95C9FE" d="M204.779,243.524c11.253-2.047,26.854-3.58,48.084-3.58c23.02,0,39.899,4.858,50.897,14.065
			c10.231,8.44,16.881,21.996,16.881,38.11c0,16.369-5.114,29.925-14.835,39.132c-12.531,12.533-32.227,18.415-54.478,18.415
			c-5.883,0-11.254-0.255-15.346-1.022v64.966h-31.204V243.524L204.779,243.524z M235.982,323.836
			c3.836,1.023,8.951,1.278,15.346,1.278c23.531,0,37.853-11.509,37.853-31.715c0-19.184-13.299-29.413-35.04-29.413
			c-8.695,0-14.834,0.768-18.158,1.533V323.836L235.982,323.836z"/>
		<path fill="#95C9FE" d="M336.756,384.709c7.161,4.348,20.717,8.951,31.971,8.951c13.812,0,19.949-5.627,19.949-13.813
			c0-8.439-5.115-12.788-20.461-18.158c-24.298-8.44-34.529-21.74-34.272-36.319c0-21.996,18.159-39.132,47.062-39.132
			c13.813,0,25.833,3.58,32.994,7.417l-6.138,22.252c-5.371-3.069-15.348-7.162-26.346-7.162c-11.254,0-17.392,5.371-17.392,13.045
			c0,7.929,5.882,11.765,21.74,17.392c22.507,8.186,32.994,19.694,33.249,38.109c0,22.508-17.647,38.877-50.643,38.877
			c-15.09,0-28.646-3.581-37.854-8.696L336.756,384.709z"/>
	</g>
	<rect x="34.399" y="64.831" fill="#95C9FE" width="325.922" height="108.016"/>
	<g enable-background="new    ">
		<path fill="#2B236E" d="M137.436,82.845c4.521-0.822,10.788-1.438,19.314-1.438c9.247,0,16.027,1.952,20.445,5.65
			c4.108,3.391,6.78,8.836,6.78,15.309c0,6.575-2.055,12.02-5.959,15.719c-5.033,5.034-12.944,7.396-21.883,7.396
			c-2.362,0-4.521-0.103-6.165-0.411v26.096h-12.534L137.436,82.845L137.436,82.845z M149.97,115.104
			c1.541,0.411,3.597,0.514,6.165,0.514c9.452,0,15.205-4.623,15.205-12.739c0-7.706-5.342-11.815-14.075-11.815
			c-3.493,0-5.958,0.309-7.294,0.616L149.97,115.104L149.97,115.104z"/>
		<path fill="#2B236E" d="M189.623,137.398c4.109,2.362,10.273,4.418,16.746,4.418c8.116,0,12.637-3.802,12.637-9.452
			c0-5.24-3.493-8.322-12.329-11.507c-11.403-4.109-18.698-10.171-18.698-20.137c0-11.301,9.452-19.931,24.452-19.931
			c7.5,0,13.047,1.644,16.645,3.493l-3.083,10.171c-2.465-1.336-7.294-3.288-13.768-3.288c-8.014,0-11.507,4.315-11.507,8.322
			c0,5.342,4.007,7.808,13.253,11.403c12.021,4.521,17.876,10.582,17.876,20.548c0,11.096-8.425,20.753-26.301,20.753
			c-7.294,0-14.896-2.055-18.698-4.314L189.623,137.398z"/>
		<path fill="#2B236E" d="M238.317,82.845c5.548-0.925,12.637-1.438,20.136-1.438c12.945,0,21.883,2.671,28.253,8.014
			c6.679,5.445,10.788,13.664,10.788,25.479c0,12.329-4.213,21.575-10.788,27.534c-6.884,6.267-17.876,9.451-31.335,9.451
			c-7.397,0-12.945-0.41-17.054-0.924V82.845L238.317,82.845z M250.954,141.508c1.747,0.309,4.417,0.309,6.986,0.309
			c16.438,0.103,26.197-8.938,26.197-26.507c0.104-15.308-8.731-24.04-24.554-24.04c-4.007,0-6.883,0.308-8.63,0.719V141.508
			L250.954,141.508z"/>
	</g>
</g>
</svg>
