<?xml version="1.0" encoding="utf-8"?>
<!-- Generator: Adobe Illustrator 16.0.0, SVG Export Plug-In . SVG Version: 6.00 Build 0)  -->
<!DOCTYPE svg PUBLIC "-//W3C//DTD SVG 1.1//EN" "http://www.w3.org/Graphics/SVG/1.1/DTD/svg11.dtd">
<svg version="1.1" id="Layer_1" xmlns="http://www.w3.org/2000/svg" xmlns:xlink="http://www.w3.org/1999/xlink" x="0px" y="0px"
	 width="520px" height="520px" viewBox="0 0 520 520" enable-background="new 0 0 520 520" xml:space="preserve">
<g id="Layer_x0020_1">
	<g id="_306388080">
		<g>
			<polygon fill="#CC6699" points="471.146,375.005 260.049,490.01 48.854,375.005 48.854,144.995 260.049,29.99 471.146,144.995 
							"/>
			<polygon fill="#B85C8A" points="471.146,375.005 260.049,490.01 260.049,29.99 471.146,144.995 			"/>
		</g>
		<path fill="#FFFFFF" d="M138.419,354.652c-1.728,0-4.128-0.671-5.472-1.727c-4.224-3.358-1.728-12.096-0.192-15.937
			c0.961-2.4,2.305-4.512,3.745-6.526c1.919-2.785,2.399-2.785,3.359-4.129c0.959-1.248,5.279-4.896,6.623-6.048
			c6.72-5.663,14.977-10.847,22.56-15.264c0.576-0.383,0.961-0.768,1.729-0.961c0,1.441,1.535,6.048,1.535,11.426
			c0,8.447-2.495,14.59-6.239,20.926l-3.936,5.28c-3.552,3.743-4.896,5.377-9.792,8.352c-3.744,2.305-9.313,4.512-13.92,4.512
			V354.652z M325.902,314.046c-1.439-5.28,7.201-18.814,12.192-22.175c0.479,0.959,0.671,2.399,0.767,3.743
			c1.056,8.447-5.087,16.607-13.055,18.529L325.902,314.046z M327.15,270.079c0.192,2.209,1.92,6.528,2.785,8.353
			c0.479,1.056,3.263,6.431,3.455,7.486c-1.152,0.769-1.344,1.057-2.304,1.92c-8.064,6.815-17.088,19.201-16.129,29.953
			c0.385,4.8,5.089,7.487,10.368,6.144c0.961-0.192,2.208-0.673,3.168-1.056c8.735-3.36,11.328-4.8,18.144-11.521
			c5.185-5.185,6.624-12.193,5.088-19.199l-1.92-6.814c1.632-0.098,11.136-4.994,26.879-3.745c9.408,0.768,18.529,2.782,26.016,8.35
			c10.177,7.587,15.264,22.85,1.536,31.873c-3.553,2.4-3.455,2.207-2.111,4.127c6.336,0,13.535-6.814,15.839-12.574
			c3.168-7.872,0.959-16.512-2.784-23.136c-5.471-9.889-17.854-16.704-28.991-18.624c-12.288-2.111-25.247-0.383-36.575,4.224
			c-0.959,0.384-2.592,1.249-3.551,1.439l-3.456-7.007c-0.192-0.863-0.865-2.111-1.248-2.976c-1.249-3.072-2.209-7.2-2.209-10.464
			c0-1.823-0.288-2.304-0.096-3.84c0.192-1.44,0.096-2.496,0.385-3.937c0.479-2.591,1.151-4.607,1.728-6.911
			c0.287-1.152,2.111-5.376,1.824-6.336c-1.439-4.896-18.432-3.168-19.871,0.288c-1.44,3.455-1.824,6.72-2.784,9.984
			c-0.865,3.071-3.746,8.831-5.28,11.903c-0.577,1.152-1.056,1.728-1.536,2.879l-6.146,11.04c-2.015,3.456-3.838,7.009-6.143,10.367
			c-0.383,0.48-0.096,0.192-0.288,0.385c-0.48-1.919-3.743-6.24-4.416-12.288c-0.19-1.824-0.576-3.264-0.576-5.183
			c0-4.704,0.098-6.433,1.057-10.176c0.673-2.88,1.824-5.76,2.688-8.544c1.921-5.951-13.055-4.129-16.607-3.168
			c-4.607,1.247-3.071,4.608-5.567,11.136c-2.303,6.048-5.951,13.63-8.448,19.678l-6.911,15.458
			c-3.264,7.392-7.872,18.047-11.52,24.862c-0.768,1.344-2.4,4.704-3.456,5.28c-2.112-4.321,3.168-23.519,4.607-28.513
			c0.48-1.727,3.359-12.096,3.359-13.823c0-2.592-2.207-3.84-4.031-4.416c-3.744-1.248-5.184,0.673-6.72,1.441
			c0.48-4.896,1.632-8.16-0.48-14.017c-0.672-1.728-1.919-3.647-3.359-4.607c-1.824-1.248-3.455-1.632-6.336-1.632
			c-8.64,0-20.831,9.887-24.96,15.264c0,0-0.095,0.096-0.095,0.19l-0.193,0.288l-0.095,0.097c-3.36,3.648-0.864,2.688-8.447,6.528
			c-1.824,0.863-3.361,1.92-5.185,2.783l-7.68,4.224c-1.056,0.48-1.537,0.863-2.593,1.441l-5.184,2.782
			c-1.056,0.48-1.536,0.863-2.592,1.441c-0.864,0.479-2.016,1.246-2.784,1.44c-1.152-1.729-2.591-3.167-4.319-4.418l-30.144-24.67
			c-1.056-0.961-2.399-2.784-3.455-3.265l-3.84-4.415c-4.417-5.567-6.816-9.503-7.969-17.472
			c-0.672-4.512,0.672-11.423,1.728-14.688c2.593-7.488,7.776-14.88,13.248-20.447c8.833-8.832,13.344-12.192,23.328-18.816
			l3.84-2.399c21.311-13.056,43.007-23.04,68.062-26.688c7.201-1.056,16.992-1.248,23.903-0.288
			c5.567,0.768,9.025,1.824,13.345,3.552c8.83,3.455,13.344,11.04,11.903,21.216c-0.48,3.36-1.439,6.72-2.785,9.696
			c-3.839,7.967-4.895,8.927-10.079,15.071c-2.303,2.688-5.855,6.048-8.639,8.256l-7.297,5.375
			c-7.296,4.607-14.016,7.969-22.943,10.943c-8.16,2.689-17.759,4.992-28.702,4.992c-9.313,0-18.528-2.399-24.864-8.832
			c-0.575-0.575-1.44-1.631-2.016-2.015c-1.921-1.44-4.512,1.152-0.769,7.008c2.112,3.264,5.28,6.239,8.64,8.351
			c3.552,2.208,7.297,3.937,12,4.992c4.319,0.961,10.08,1.44,15.551,1.44c6.433,0,16.32-1.248,22.465-2.688
			c6.431-1.537,13.247-3.36,19.198-5.952c6.433-2.783,10.657-5.088,16.225-8.928c0.863-0.672,1.536-1.152,2.399-1.824
			c0.863-0.575,1.536-1.152,2.4-1.824l4.511-3.937c7.393-7.392,13.345-14.591,17.568-24.574c6.144-14.208,7.872-32.735-4.512-45.022
			l-1.631-1.536l-0.098-0.097c-10.079-8.16-20.256-11.423-33.982-13.15l-7.873-0.577h-0.672c-8.352,0-7.008,0-15.646,0.769
			c-4.896,0.384-9.888,1.344-14.304,2.399c-16.992,3.84-33.022,11.04-48.575,18.72c-3.839,1.92-7.2,3.936-10.943,5.951l-5.279,3.264
			c-4.608,2.978-10.848,7.009-15.072,10.369c-0.768,0.672-1.439,1.056-2.208,1.728l-7.872,6.816
			c-0.575,0.479-0.672,0.479-1.247,0.96c-6.816,6.048-16.416,17.951-20.353,26.015c-0.959,1.92-1.824,3.455-2.591,5.567
			c-0.769,2.017-1.633,4.129-2.112,6.336c-0.673,2.783-1.152,5.279-1.152,7.681v2.016c0.192,5.76,2.209,10.943,5.855,16.992
			c1.057,1.824,2.208,3.359,3.457,4.991l3.84,4.607c1.535,2.399,9.694,9.504,12.767,11.903c7.2,5.76,16.224,12.191,23.808,17.28
			l6.433,4.512c0.96,0.671,5.759,3.839,6.048,5.089c-1.249,0.383-6.625,3.456-8.353,4.317l-8.352,4.801
			c-4.896,2.881-16.224,10.56-20.351,14.591c-4.417,4.417-9.025,8.641-11.616,14.593c-4.129,9.696-5.376,21.888,1.919,30.433
			c2.4,2.782,4.033,4.126,8.063,5.087c10.177,2.399,21.601,0.673,29.185-3.072c2.496-1.247,3.072-1.439,5.76-2.976
			c3.744-2.305,6.72-4.607,9.791-7.682l4.224-4.512c2.017-2.302,3.648-5.183,5.185-7.774c0.575-1.056,0.96-1.729,1.537-2.976
			c4.318-10.464,5.663-17.567,4.702-29.663c-0.575-7.393-3.648-12.768-3.743-13.728c0.96-0.29,3.359-1.824,4.319-2.402
			c1.823-1.148,12-7.006,13.151-7.294l-1.631,6.048c-3.648,14.495-3.265,32.544,6.048,44.062c2.783,3.456,6.911,4.705,11.52,3.648
			c6.048-1.344,9.791-9.696,12.287-15.071c0.48-0.96,0.864-1.631,1.345-2.688l4.8-10.847c0,4.702-1.44,10.367,0.287,16.702
			c0.48,1.92,1.537,4.607,2.978,5.953c5.086,4.702,10.751,0.287,14.303-4.033c3.552-4.224,8.831-14.591,11.52-19.871
			c0.48-0.96,1.055-1.729,1.537-2.88c0.575-1.056,0.958-1.919,1.536-2.975l14.11-30.817c0.48-1.151,0.863-2.112,1.248-3.168
			c0.48-0.959,0.959-2.112,1.249-3.263c0.768,0.575,0.575,1.438,1.056,3.455c0.288,1.249,0.671,2.688,0.959,3.841
			c2.017,8.16,3.936,11.038,7.104,18.049l0.961,1.534c-3.266,4.895-8.16,10.944-12.191,15.551l-9.408,11.521
			c-8.064,11.135,7.487,14.112,24.382,5.665c5.857-2.978,11.713-7.872,13.728-14.112c0.769-2.305,1.441-5.185,1.346-8.16
			c0-4.512-1.921-11.137-3.745-14.976c0.385-0.576,0.865-1.153,1.248-1.729l3.841-5.855c0.863-1.439,1.534-2.593,2.497-4.031
			l4.702-7.968c0.769-1.536,1.536-2.689,2.305-4.128c0.385-0.769,0.673-1.441,1.056-2.112c1.056-1.729,2.688-5.664,3.456-6.239
			c0,1.439,1.344,6.72,1.823,8.639l0.386,0.961L327.15,270.079z M232.688,314.046l0.097,0.098L232.688,314.046z M296.048,306.078
			c0,0.864-0.288,2.976-0.48,3.744c-0.288,1.248-0.673,2.017-1.153,3.072c-1.056,2.017-2.111,3.551-3.646,5.087
			c-1.634,1.632-2.689,2.593-4.514,3.937c-2.303,1.729-8.831,5.089-4.127,0.385c0.863-0.865,1.151-1.44,2.015-2.209
			c0.385-0.383,0.673-0.575,0.961-0.959c2.976-3.455,6.143-6.913,8.832-10.56c0.479-0.673,1.439-2.017,2.112-2.401V306.078z
			 M198.322,289.374L198.322,289.374z M214.737,324.029c-0.768,0-0.96-0.192-1.439-0.575c-0.77-0.863-1.536-3.263-1.825-4.416
			c-2.591-11.807,0.961-25.056,6.145-35.231c1.632-3.168,4.32-7.487,6.527-10.175c0.672-0.865,1.056-1.344,1.921-2.111
			c1.823-1.634,5.854-4.512,8.159-4.512c2.688,0,2.209,1.919,2.209,3.263c0,5.088-7.104,24.287-8.832,28.801
			c-1.729,4.414-8.928,25.055-12.864,25.055V324.029z"/>
	</g>
</g>
</svg>
