<?xml version="1.0" encoding="utf-8"?>
<!-- Generator: Adobe Illustrator 16.0.0, SVG Export Plug-In . SVG Version: 6.00 Build 0)  -->
<!DOCTYPE svg PUBLIC "-//W3C//DTD SVG 1.1//EN" "http://www.w3.org/Graphics/SVG/1.1/DTD/svg11.dtd">
<svg version="1.1" id="Layer_1" xmlns="http://www.w3.org/2000/svg" xmlns:xlink="http://www.w3.org/1999/xlink" x="0px" y="0px"
	 width="520px" height="520px" viewBox="0 0 520 520" enable-background="new 0 0 520 520" xml:space="preserve">
<g>
	<g>
		<path fill="#470137" d="M112.285,477.808c-5.46,0-10.968-0.606-16.37-1.806c-26.419-5.858-47.941-28.456-52.337-54.953
			c-0.062-0.373-0.119-0.937-0.179-1.534c-0.151-1.511-0.343-3.417-0.899-5.539V105.804c0.625-2.198,0.805-4.154,0.938-5.607
			c0.043-0.471,0.088-0.958,0.129-1.201c4.702-28.095,27.636-51.021,55.772-55.751c0.255-0.036,0.538-0.049,0.82-0.07
			c1.428-0.109,3.48-0.266,5.8-0.986h307.77c2.06,0.526,3.914,0.724,5.386,0.88c0.606,0.064,1.183,0.125,1.583,0.192
			c27.738,4.631,51.176,28.053,55.724,55.69c0.061,0.364,0.114,0.919,0.173,1.507c0.149,1.524,0.339,3.445,0.906,5.588v307.231
			c-0.227,0.908-0.367,1.882-0.404,2.919c-0.356,3.252-0.92,6.423-1.668,9.396c-7.847,31.219-35.06,52.199-67.716,52.207
			c-42.266,0.011-84.534,0.014-126.8,0.014L112.285,477.808z"/>
		<path fill="#FD60F4" d="M412.313,54.688c2.216,0.463,4.107,0.664,5.48,0.81c0.311,0.033,0.729,0.077,0.896,0.1
			c22.577,3.795,41.646,22.83,45.384,45.299c0.032,0.261,0.055,0.523,0.08,0.786c0.144,1.458,0.342,3.466,0.847,5.824v304.579
			c-0.18,1.004-0.302,2.023-0.365,3.058c-0.3,2.598-0.746,5.083-1.33,7.403c-6.426,25.565-28.769,42.746-55.596,42.753
			c-42.318,0.011-84.646,0.015-126.964,0.015l-80.067-0.004l-80.07-0.002h-8.323c-4.616,0-9.085-0.492-13.665-1.51
			c-21.538-4.775-39.085-23.159-42.698-44.714c-0.035-0.271-0.058-0.545-0.085-0.817c-0.145-1.437-0.343-3.417-0.837-5.738V107.355
			c0.562-2.487,0.754-4.581,0.886-6.011c0.016-0.166,0.029-0.332,0.046-0.497c1.873-10.904,7.41-21.41,15.607-29.605
			c8.143-8.141,18.573-13.666,29.424-15.593c0.049-0.003,0.099-0.007,0.148-0.011c1.473-0.113,3.769-0.288,6.521-0.95H412.313
			 M415.595,29.688c-104.021,0-208.043,0-312.063,0c-1.939,1.145-4.175,0.878-6.263,1.229C64.002,36.51,36.799,63.705,31.239,96.934
			c-0.375,2.242-0.219,4.597-1.239,6.722c0,100.083,0,212.164,0,312.247c0.93,2.306,0.849,4.795,1.247,7.191
			c5.253,31.656,30.43,58.118,61.962,65.11c6.295,1.396,12.64,2.103,19.077,2.103c2.777,0,5.546,0,8.323,0
			c53.379,0,106.758,0.006,160.137,0.006c42.32,0,84.648-0.004,126.97-0.015c38.27-0.01,70.635-25.054,79.836-61.658
			c0.961-3.82,1.618-7.693,2.027-11.61c0.041-0.406-0.111-0.899,0.422-1.127c0-99.938,0-211.872,0-311.81
			c-0.943-2.297-0.852-4.782-1.245-7.173c-5.447-33.106-32.788-60.445-66.003-65.991C420.366,30.532,417.896,30.574,415.595,29.688
			L415.595,29.688z"/>
	</g>
	<g>
		<path fill="#FD60F4" d="M406.785,254.603c0.146,22.538-0.255,50.57,0.195,78.6c0.068,4.29,0.457,8.579,0.791,12.861
			c0.162,2.094-0.659,3.282-2.609,4.079c-13.439,5.486-27.42,8.602-41.86,9.809c-11.72,0.98-23.358,0.841-34.856-2.043
			c-17.16-4.302-31.195-13.053-40.698-28.336c-5.447-8.76-8.209-18.419-9.262-28.576c-1.141-10.979-1.109-21.942,2.288-32.596
			c8.375-26.262,26.22-42.617,52.669-49.684c10.686-2.856,21.625-3.516,32.644-2.495c1.533,0.142,2.003-0.201,1.997-1.829
			c-0.062-17.256-0.039-34.511-0.037-51.767c0.001-3.058,0.07-3.124,3.114-3.124c10.908-0.002,21.816,0,32.725-0.001
			c2.747,0,2.898,0.142,2.898,2.934C406.787,191.325,406.785,220.217,406.785,254.603z M368.046,287.664
			c0-12.093-0.038-24.185,0.045-36.274c0.012-1.646-0.432-2.284-2.046-2.556c-7.763-1.312-15.444-1.088-22.863,1.614
			c-11.872,4.324-20.791,11.892-24.134,24.488c-2.738,10.313-2.279,20.702,1.507,30.771c3.057,8.126,8.338,14.331,16.439,17.846
			c9.432,4.093,19.281,3.811,29.208,2.704c1.475-0.166,1.889-0.832,1.88-2.317C368.018,311.848,368.046,299.755,368.046,287.664z"/>
		<path fill="#FD60F4" d="M194.435,243.174c0.34-0.545,0.539-0.806,0.678-1.094c10.239-21.387,22.218-41.861,32.961-62.979
			c1.768-3.475,3.735-4.584,7.553-4.484c10.967,0.29,21.947,0.103,32.922,0.102c0.919,0,1.895-0.158,2.496,0.797
			c0.629,1.001-0.276,1.609-0.684,2.282c-16.921,27.968-33.851,55.932-50.843,83.858c-0.823,1.354-0.515,2.203,0.188,3.355
			c17.825,29.198,35.624,58.412,53.426,87.624c0.206,0.338,0.394,0.688,0.609,1.021c0.551,0.846,1.187,1.804,0.675,2.747
			c-0.467,0.864-1.564,0.405-2.366,0.407c-13.29,0.021-26.579-0.042-39.867,0.029c-3.079,0.018-4.941-1.119-6.333-3.956
			c-10.452-21.279-21.997-41.978-33.524-62.685c-0.251-0.451-0.545-0.88-0.806-1.299c-0.746,0.143-0.79,0.762-1.008,1.188
			c-11.166,21.801-22.766,43.368-34.542,64.843c-0.882,1.608-2.023,2.254-3.796,2.25c-12.827-0.023-25.653-0.023-38.478,0.025
			c-1.539,0.007-1.716-0.703-1.283-1.831c0.304-0.791,0.805-1.512,1.25-2.244c17.323-28.421,34.639-56.847,52.012-85.235
			c0.817-1.334,0.766-2.229-0.004-3.53c-17.093-28.863-34.139-57.754-51.192-86.641c-1.49-2.523-1.18-3.12,1.704-3.123
			c12.694-0.012,25.388,0.043,38.082-0.041c2.832-0.019,4.461,1.067,5.618,3.668c5.906,13.29,13.059,25.935,20.326,38.51
			c4.561,7.892,8.937,15.876,12.975,24.046C193.53,241.488,193.908,242.171,194.435,243.174z"/>
	</g>
</g>
</svg>
